<svg class="svg-icon" style="width: 1em; height: 1em;vertical-align: middle;fill: currentColor;overflow: hidden;" viewBox="0 0 1024 1024" version="1.1" xmlns="http://www.w3.org/2000/svg"><path d="M334.388606 332.305188h506.478942c20.625839 0 43.960122 17.917396 37.501526 37.501526l-93.753815 281.261445c-6.458596 19.58413-16.875687 37.501526-37.501526 37.501526h-337.513733c-20.625839 0-32.292981-17.500712-37.501526-37.501526l-75.003052-281.261445c-5.625229-19.792472 16.667345-37.501526 37.293184-37.501526z" fill="#424242" /><path d="M334.388606 315.637843h506.478942c6.041913 0 12.292167 1.041709 18.125738 3.125127 9.375381 3.125127 18.334079 8.542014 24.792675 15.625636 7.500305 7.916989 12.292167 17.917396 12.292167 28.75117 0 3.750153-0.625025 7.916989-2.083418 11.875483l-93.753815 281.261445c-3.958494 11.667141-8.958698 22.917599-16.667345 31.667955-8.958698 10.417091-20.834181 17.29237-36.668158 17.292371h-337.513734c-14.375585 0-25.834385-5.625229-34.793082-14.583927-9.16704-9.16704-15.208952-22.084232-18.959105-35.418108l-71.877925-269.594303-39.793286-148.756053H127.921872v-33.33469H269.385961l3.333469 12.500509 29.376196 109.37945c5.416887-3.541811 11.4588-6.250254 17.709054-7.916988 4.791862-1.250051 9.792065-1.875076 14.583926-1.875077z" fill="#FF5252" /><path d="M475.019329 773.364802m-46.876908 0a46.876907 46.876907 0 1 0 93.753815 0 46.876907 46.876907 0 1 0-93.753815 0Z" fill="#424242" /><path d="M657.526755 773.364802m-46.876908 0a46.876907 46.876907 0 1 0 93.753815 0 46.876907 46.876907 0 1 0-93.753815 0Z" fill="#424242" /></svg>