<svg class="svg-icon" style="width: 1em;height: 1em;vertical-align: middle;fill: currentColor;overflow: hidden;" viewBox="0 0 1024 1024" version="1.1" xmlns="http://www.w3.org/2000/svg"><path d="M853.333333 298.794667v554.24a85.290667 85.290667 0 0 1-136.533333 68.266666l-128-96a128 128 0 0 0-153.6 0l-128 96a85.290667 85.290667 0 0 1-136.533333-68.266666V298.794667a213.12 213.12 0 0 1 213.333333-213.333334h256a213.12 213.12 0 0 1 213.333333 213.333334z" fill="#FFB531" /><path d="M660.053333 384.128a31.957333 31.957333 0 0 1-32 32H395.946667a32 32 0 0 1 0-64h232.106666a31.701333 31.701333 0 0 1 32 32z" fill="#030835" /></svg>